<?xml version="1.0" encoding="UTF-8"?>
<svg id="_图层_1" data-name="图层 1" xmlns="http://www.w3.org/2000/svg" viewBox="0 0 181.56 181.56">
  <defs>
    <style>
      .cls-1 {
        fill: #000;
      }

      .cls-1, .cls-2 {
        stroke-width: 0px;
      }

      .cls-2 {
        fill: #fff;
      }
    </style>
  </defs>
  <g>
    <path class="cls-1" d="M90.78,181.06C41,181.06.5,140.56.5,90.78S41,.5,90.78.5s90.28,40.5,90.28,90.28-40.5,90.28-90.28,90.28Z"/>
    <path class="cls-1" d="M90.78,1c49.51,0,89.78,40.28,89.78,89.78s-40.28,89.78-89.78,89.78S1,140.29,1,90.78,41.28,1,90.78,1M90.78,0C40.64,0,0,40.64,0,90.78s40.64,90.78,90.78,90.78,90.78-40.64,90.78-90.78S140.92,0,90.78,0h0Z"/>
  </g>
  <path class="cls-2" d="M121.8,73.98c-5.12.99-10.24-1.44-12.86-5.95-3.28-5.64-8.66-8.43-16.08-8.43-14.64,0-23.16,11.52-23.16,31.32s8.88,31.44,23.76,31.44c6.6,0,12.24-2.76,15.72-7.56.93-1.32,2.2-3.43,3.37-5.82,2.45-5,7.94-7.73,13.39-6.59l.2.04c7.78,1.62,11.88,10.15,8.38,17.29-1.99,4.05-4.29,7.6-6.73,10.44-7.44,8.52-19.08,13.08-33.6,13.08s-27-4.56-35.52-13.2c-8.88-9-13.92-23.04-13.92-39.12s5.04-30.12,14.52-39.48c8.28-8.04,20.4-12.48,34.44-12.48,15.48,0,27.6,5.28,35.4,15.72.04.05.08.1.11.15,5.47,7.06,1.46,17.43-7.31,19.13l-.1.02Z"/>
</svg>